<?xml version="1.0" standalone="no"?><!DOCTYPE svg PUBLIC "-//W3C//DTD SVG 1.1//EN" "http://www.w3.org/Graphics/SVG/1.1/DTD/svg11.dtd"><svg t="1780455673650" class="icon" viewBox="0 0 1066 1024" version="1.1" xmlns="http://www.w3.org/2000/svg" p-id="2918" xmlns:xlink="http://www.w3.org/1999/xlink" width="16.65625" height="16"><path d="M554.666667 589.653333a35.2 35.2 0 0 1-17.024-4.394666L103.68 347.136a35.328 35.328 0 0 1 0-61.952L537.6 47.018667a35.242667 35.242667 0 0 1 34.005333 0L1005.653333 285.184a35.328 35.328 0 0 1 0 61.909333L571.733333 585.258667a35.370667 35.370667 0 0 1-17.024 4.352zM194.133333 316.16L554.666667 513.92l360.533333-197.845333L554.666667 118.314667 194.133333 316.117333z" fill="#000000" fill-opacity=".85" p-id="2919"></path><path d="M554.666667 780.714667a35.2 35.2 0 0 1-16.981334-4.352L103.68 538.197333a35.328 35.328 0 0 1 34.005333-61.909333L554.666667 705.109333l416.981333-228.821333a35.328 35.328 0 0 1 34.005333 61.909333L571.733333 776.405333a35.2 35.2 0 0 1-17.024 4.352z" fill="#FFC53D" p-id="2920"></path><path d="M554.666667 971.818667a35.2 35.2 0 0 1-16.981334-4.352L103.68 729.301333a35.328 35.328 0 0 1 34.005333-61.909333L554.666667 896.170667l416.981333-228.821334a35.328 35.328 0 0 1 34.005333 61.952L571.733333 967.466667a35.370667 35.370667 0 0 1-17.024 4.352z" fill="#000000" fill-opacity=".85" p-id="2921"></path></svg>